<svg id="Layer_1" data-name="Layer 1" xmlns="http://www.w3.org/2000/svg" viewBox="0 0 1916 440"><defs><style>.cls-1{fill:#47a6d7;}</style></defs><path class="cls-1" d="M1738.65,0c-3.56,10.83-10.52,19.5-18.62,27.24-8.33,8-17.3,15.24-25.61,23.23-19.64,18.85-24.81,41.91-19,68,.41,1.81,1.22,2.49,3.19,2.47,13.27-.1,26.54-.05,39.81-.05.81,0,1.62-.08,2.71-.13-.24-1.26-.43-2.29-.64-3.33-2.82-14-.92-27,7-39.09,6.47-9.83,14.85-17.76,23.72-25.32,8.52-7.25,17.39-14.23,25-22.34a89.52,89.52,0,0,0,18.67-28.58A146.76,146.76,0,0,0,1770.22,0Z"/><path class="cls-1" d="M165.49,323.93c-7.75.05-14.13,1.41-20,4.58-20.13,10.9-22.78,34.41-5.13,48.34,11.18,8.83,24,10.45,37.39,6.17,21.23-6.78,28.24-30.67,14-47.63C184.67,327,174.94,324.33,165.49,323.93Z"/><path class="cls-1" d="M443,1.24c-8.33,8-17.3,15.24-25.61,23.23-19.64,18.85-24.81,41.91-19,68,.41,1.81,1.22,2.49,3.19,2.47,13.27-.1,26.54-.05,39.81-.05.81,0,1.62-.08,2.71-.13-.24-1.26-.43-2.29-.64-3.33-2.82-14-.92-27,7-39.09C457,42.5,465.34,34.57,474.21,27c8.52-7.25,17.39-14.23,25-22.34,1.46-1.54,2.84-3.09,4.16-4.67h-59.1Z"/><path class="cls-1" d="M410.21,427c8.52-7.25,17.39-14.23,25-22.34,21.22-22.46,28.79-48.88,20.77-79.2-2.92-11.06-7.47-21.29-15.67-29.55-12-12.08-26.79-18.71-43.21-22.05-20.85-4.24-41.71-3.71-62.54.19-14.25,2.67-28,6.88-40.83,13.78a3.75,3.75,0,0,0-2.34,3.83c.09,15.28,0,30.55.05,45.83,0,.67.12,1.34.17,1.93,6.05-3.44,11.77-7,17.72-10,17.55-9,36-13.93,55.89-11.32,12.61,1.66,23.26,6.83,30,18.09,6.9,11.56,6.54,23.9,2.86,36.37-3.4,11.51-10.62,20.6-19.08,28.69s-17.3,15.24-25.61,23.23A72.47,72.47,0,0,0,341,440h55.36A170.65,170.65,0,0,1,410.21,427Z"/><path class="cls-1" d="M241.11,75.55c-12-12.08-26.78-18.71-43.21-22-20.85-4.24-41.7-3.71-62.54.19-14.25,2.66-28,6.88-40.82,13.77a3.77,3.77,0,0,0-2.35,3.84c.09,15.27,0,30.55.06,45.83a18.73,18.73,0,0,0,.17,1.93c6-3.44,11.76-7,17.72-10,17.54-9,36-13.93,55.89-11.32,12.6,1.65,23.25,6.82,30,18.09,6.9,11.56,6.55,23.9,2.87,36.36-3.4,11.52-10.62,20.61-19.08,28.7s-17.31,15.24-25.62,23.22c-19.63,18.86-24.81,41.92-19,68,.4,1.82,1.21,2.49,3.19,2.48,13.27-.1,26.53-.05,39.8-.05.81,0,1.62-.08,2.71-.13-.24-1.26-.43-2.29-.64-3.33-2.82-14-.91-27,7-39.09,6.46-9.83,14.84-17.77,23.72-25.32,8.52-7.26,17.38-14.24,25-22.34,21.21-22.47,28.79-48.89,20.76-79.2C253.86,94,249.31,83.81,241.11,75.55Z"/><path class="cls-1" d="M428.73,144.3c-7.76,0-14.14,1.41-20,4.58-20.13,10.9-22.78,34.41-5.13,48.35,11.18,8.82,24,10.44,37.39,6.16,21.24-6.78,28.25-30.67,14-47.63C447.9,147.36,438.18,144.7,428.73,144.3Z"/><path class="cls-1" d="M1809.43,5.34c-5.1,15.88-14.66,30.2-28.25,43.06-9.39,8.88-19.5,17-29.13,25.64-5.69,5.11-10.86,10.73-14.48,17.59-5.17,9.81-6.51,19.93-2.57,30.51.75,2,1.45,4.07,2.12,6.12,1.56,4.77-1.17,8.79-6.19,9-2.32.11-4.64,0-7,0h-52.25c-4.52,0-5.88-.89-7.22-5.26-10.67-34.52-3.66-64.74,22.41-90,8-7.79,16.8-14.8,25-22.43A49.56,49.56,0,0,0,1725.14,0H522.76a115,115,0,0,1-18.58,22.4c-9.39,8.88-19.5,17-29.13,25.64-5.69,5.11-10.86,10.73-14.48,17.59-5.17,9.81-6.51,19.93-2.57,30.51.75,2,1.45,4.07,2.12,6.12,1.56,4.77-1.17,8.79-6.19,9-2.32.11-4.64,0-7,0H394.72c-4.52,0-5.88-.89-7.22-5.26-10.67-34.52-3.66-64.74,22.41-90,5.75-5.58,11.88-10.76,17.91-16h-282A145.78,145.78,0,0,0,0,145.78V294.22A145.78,145.78,0,0,0,145.78,440H327.63a95,95,0,0,1,18.28-23.95c8-7.79,16.8-14.8,25-22.43s13.63-16.9,15.4-28.06c2.85-18-7.19-30.25-25.45-31.33-13-.77-25.15,2.69-37,7.34a113.43,113.43,0,0,0-33.48,20.22c-2.52,2.2-5.17,2.87-8.24,1.56s-3.85-4.09-3.85-7.16q0-16.69,0-33.38c0-11,.06-22.09,0-33.13,0-3.78,1.64-6.14,4.86-7.93,28.88-16,60-22.15,92.7-20.94,18.94.7,37.19,4.48,54,13.69,23.39,12.81,37,32.64,41.39,58.84,6,35.35-5.36,64.8-31,89.06-6.44,6.09-13.21,11.82-19.93,17.6h1350A145.78,145.78,0,0,0,1916,294.22V145.78A145.85,145.85,0,0,0,1809.43,5.34ZM190,392.75c-19.95,10.86-46.39,7.51-61.93-7.86a42.5,42.5,0,0,1,8.18-67.1c8.78-5.22,18.33-7.56,29.7-7.74,9.41.32,19.45,2.58,28.37,8.76C217.31,334.73,222.08,375.26,190,392.75Zm51-190.72c-9.39,8.88-19.5,17-29.12,25.64-5.69,5.11-10.87,10.73-14.48,17.59-5.17,9.81-6.51,19.93-2.58,30.51q1.13,3,2.13,6.12c1.55,4.77-1.17,8.78-6.19,9-2.32.11-4.65,0-7,0H131.48c-4.51,0-5.87-.88-7.22-5.25-10.66-34.52-3.66-64.74,22.41-90,8-7.79,16.81-14.8,25-22.43s13.62-16.9,15.39-28.06c2.85-18-7.19-30.25-25.45-31.33-13-.77-25.15,2.69-37,7.34a113.38,113.38,0,0,0-33.47,20.22c-2.52,2.2-5.17,2.87-8.24,1.56S79,138.89,79,135.82V102.44c0-11,.07-22.09,0-33.13,0-3.79,1.64-6.14,4.87-7.93,28.88-16,60-22.15,92.7-20.94,18.94.7,37.18,4.48,54,13.68,23.4,12.82,37,32.65,41.39,58.85C277.89,148.32,266.58,177.77,240.94,202Zm212.27,11.09c-19.94,10.86-46.38,7.51-61.92-7.86a42.49,42.49,0,0,1,8.18-67.1c8.77-5.22,18.33-7.56,29.69-7.74,9.41.32,19.45,2.58,28.38,8.76C480.55,155.1,485.32,195.63,453.21,213.12Zm1277,26c-19.94,10.86-46.38,7.51-61.92-7.86a42.49,42.49,0,0,1,8.18-67.1c8.77-5.22,18.33-7.56,29.69-7.74,9.41.32,19.45,2.58,28.38,8.76C1757.55,181.1,1762.32,221.63,1730.21,239.12Z"/><path class="cls-1" d="M1705.73,170.3c-7.76,0-14.14,1.41-20,4.58-20.13,10.9-22.78,34.41-5.13,48.35,11.18,8.82,24,10.44,37.39,6.16,21.24-6.78,28.25-30.67,14-47.63C1724.9,173.36,1715.18,170.7,1705.73,170.3Z"/></svg>